<svg xmlns="http://www.w3.org/2000/svg" viewBox="0 0 198.39 228.2"><defs><style>.cls-1{fill:none;stroke:#231f20;stroke-miterlimit:10;stroke-width:5px;}</style></defs><g id="Layer_2" data-name="Layer 2"><g id="Layer_1-2" data-name="Layer 1"><path class="cls-1" d="M154.64,54.05V170.53a14.25,14.25,0,0,0,14.25,14.25H169V202a23.75,23.75,0,0,1-23.76,23.75h-119A23.75,23.75,0,0,1,2.5,202V26.26A23.76,23.76,0,0,1,26.26,2.5h119A23.76,23.76,0,0,1,169,26.26V39.79h-.09A14.25,14.25,0,0,0,154.64,54.05Z"/><line class="cls-1" x1="118.85" y1="130.45" x2="25.87" y2="130.45"/><line class="cls-1" x1="25.87" y1="65.06" x2="145.61" y2="65.06"/><line class="cls-1" x1="25.87" y1="32.37" x2="145.61" y2="32.37"/><line class="cls-1" x1="140.76" y1="97.76" x2="25.87" y2="97.76"/><path class="cls-1" d="M195.89,54.05V170.53a14.25,14.25,0,0,1-14.26,14.25H168.89a14.25,14.25,0,0,1-14.25-14.25V54.05a14.25,14.25,0,0,1,14.25-14.26h12.74A14.25,14.25,0,0,1,195.89,54.05Z"/><polygon class="cls-1" points="86.59 186.63 79.55 182.2 65.02 205.28 47.18 194.05 61.71 170.97 54.67 166.54 89.61 146.43 86.59 186.63"/></g></g></svg>