<svg xmlns="http://www.w3.org/2000/svg" viewBox="0 0 214.83 228.2"><defs><style>.cls-1{fill:none;stroke:#231f20;stroke-miterlimit:10;stroke-width:5px;}</style></defs><g id="Layer_2" data-name="Layer 2"><g id="Layer_1-2" data-name="Layer 1"><line class="cls-1" x1="117.91" y1="130.45" x2="24.93" y2="130.45"/><line class="cls-1" x1="96.13" y1="163.14" x2="24.93" y2="163.14"/><path class="cls-1" d="M91.48,184.05a5.76,5.76,0,0,0,8.84,5.92l14.89-9.86a13.22,13.22,0,0,0,3.68-3.66l8.92-13.31L169,101.71V202a23.75,23.75,0,0,1-23.76,23.75h-119A23.75,23.75,0,0,1,2.5,202V26.26A23.76,23.76,0,0,1,26.26,2.5h119A23.76,23.76,0,0,1,169,26.26v28L139.82,97.76l-21.91,32.69-21,31.29a13,13,0,0,0-.81,1.4A12.63,12.63,0,0,0,95,166.53Z"/><path class="cls-1" d="M212.33,33a13.17,13.17,0,0,1-2.24,7.34L169,101.71l-41.17,61.43-8.92,13.31a13.22,13.22,0,0,1-3.68,3.66L100.32,190a5.76,5.76,0,0,1-8.84-5.92L95,166.53a12.63,12.63,0,0,1,1.18-3.39,13,13,0,0,1,.81-1.4l21-31.29,21.91-32.69L169,54.25l19.16-28.59A13.21,13.21,0,0,1,212.33,33Z"/><line class="cls-1" x1="24.93" y1="65.06" x2="144.67" y2="65.06"/><line class="cls-1" x1="24.93" y1="32.37" x2="144.67" y2="32.37"/><line class="cls-1" x1="139.82" y1="97.76" x2="24.93" y2="97.76"/><line class="cls-1" x1="144.67" y1="163.14" x2="127.81" y2="163.14"/><line class="cls-1" x1="24.93" y1="195.84" x2="144.67" y2="195.84"/></g></g></svg>